<svg width="480" height="184" viewBox="0 0 480 184" fill="none" xmlns="http://www.w3.org/2000/svg">
<path d="M67.2992 94.2578H81.8277C78.9208 103.08 74.0546 109.912 67.2229 114.753C60.3912 119.594 52.1855 122.017 42.6122 122.017C30.6663 122.017 20.5842 117.819 12.353 109.429C4.11556 101.032 0 90.7592 0 78.6034C0 66.4475 4.09011 56.2509 12.264 47.6953C20.4378 39.1398 30.2847 34.8652 41.798 34.8652C53.3114 34.8652 62.7766 39.0635 70.8487 47.4536C79.5632 56.3844 83.8632 67.9487 83.7615 82.1528H13.8797C14.7384 90.4412 18.0207 97.1647 23.7265 102.33C29.1079 107.171 35.3989 109.594 42.6122 109.594C54.3355 109.594 62.5667 104.486 67.3056 94.2578H67.2992ZM14.6875 69.8825H68.5905C66.8667 63.2098 63.5081 57.7775 58.502 53.5793C53.4959 49.381 47.93 47.2882 41.798 47.2882C35.666 47.2882 30.2847 49.2792 25.3358 53.2612C19.9544 57.4595 16.405 62.9999 14.6812 69.8825H14.6875Z" fill="#273A7E"/>
<path d="M291.473 94.2578H306.001C303.094 103.08 298.228 109.912 291.396 114.753C284.565 119.594 276.359 122.017 266.786 122.017C254.84 122.017 244.757 117.819 236.526 109.429C228.295 101.039 224.18 90.7592 224.18 78.6034C224.18 66.4475 228.27 56.2509 236.444 47.6953C244.618 39.1398 254.464 34.8652 265.978 34.8652C277.491 34.8652 286.956 39.0635 295.028 47.4536C303.743 56.3844 308.043 67.9487 307.941 82.1528H238.059C238.918 90.4412 242.2 97.1647 247.906 102.33C253.288 107.171 259.579 109.594 266.792 109.594C278.515 109.594 286.746 104.486 291.485 94.2578H291.473ZM238.861 69.8888H292.764C291.04 63.2162 287.681 57.7839 282.675 53.5856C277.669 49.3874 272.103 47.2946 265.971 47.2946C259.839 47.2946 254.458 49.2856 249.509 53.2676C244.128 57.4658 240.578 63.0062 238.854 69.8888H238.861Z" fill="#273A7E"/>
<path d="M360.987 68.1071L396.01 120.076H379.389L350.981 77.7885L335.002 93.2839V120.076H321.281V0H335.002V74.2391L372.932 36.9573H393.11L360.993 68.1071H360.987Z" fill="#273A7E"/>
<path d="M438.196 34.8657C450.244 34.8657 460.224 39.1403 468.137 47.6958C476.044 56.2514 480 66.6071 480 78.7629C480 90.9188 476.069 100.982 468.22 109.264C460.148 117.87 450.142 122.177 438.202 122.177C426.263 122.177 416.251 117.877 408.185 109.264C400.329 100.982 396.404 90.8106 396.404 78.7629C396.404 66.7152 400.386 56.385 408.35 47.7722C416.314 39.1658 426.263 34.8594 438.209 34.8594L438.196 34.8657ZM438.196 108.946C446.16 108.946 452.826 105.937 458.208 99.9068C463.589 93.883 466.28 86.835 466.28 78.7629C466.28 70.6908 463.697 63.4838 458.532 57.46C453.043 51.1117 446.268 47.9376 438.196 47.9376C430.124 47.9376 423.451 51.029 418.184 57.2182C412.911 63.4075 410.278 70.589 410.278 78.7629C410.278 86.9368 412.943 93.883 418.267 99.9068C423.591 105.931 430.238 108.946 438.202 108.946H438.196Z" fill="#273A7E"/>
<path d="M195.657 70.3714C195.657 63.2726 197.616 57.7576 201.547 53.8265C205.472 49.9018 210.987 47.9362 218.092 47.9362C219.275 47.9362 220.516 47.9935 221.807 48.0953V35.3478C219.975 35.1316 218.149 35.0234 216.317 35.0234C205.771 35.0234 197.432 38.3057 191.3 44.8702C185.168 51.4348 182.102 60.0412 182.102 70.6958V120.083H195.657V70.3714Z" fill="#273A7E"/>
<path d="M341.153 162.796C341.153 165.607 339.912 167.821 337.438 169.424C335.326 170.83 332.781 171.536 329.804 171.536C326.828 171.536 324.029 170.798 321.815 169.322C319.404 167.713 317.979 165.436 317.547 162.491H324.277C325.11 164.501 326.955 165.506 329.804 165.506C332.921 165.506 334.48 164.736 334.48 163.197C334.48 162.223 333.774 161.524 332.368 161.085C331.897 160.919 330.79 160.703 329.054 160.43C325.842 159.927 323.463 159.272 321.923 158.47C319.481 157.166 318.259 155.239 318.259 152.695C318.259 149.985 319.462 147.854 321.879 146.315C323.952 145.042 326.433 144.406 329.315 144.406C332.196 144.406 334.486 145.074 336.496 146.416C338.704 147.854 340.046 149.883 340.516 152.497H333.634C333.163 151.06 331.726 150.335 329.315 150.335C326.433 150.335 324.996 151.022 324.996 152.396C324.996 153.032 325.447 153.515 326.35 153.852C327.088 154.119 328.341 154.406 330.116 154.705C333.869 155.309 336.515 156.079 338.055 157.014C340.128 158.286 341.172 160.213 341.172 162.789L341.153 162.796Z" fill="#A6A7A6"/>
<path d="M352.761 142.25H346.082V137.027H352.761V142.25ZM352.761 145.061V170.931H346.133V145.061H352.761Z" fill="#A6A7A6"/>
<path d="M384.006 158.025V169.627C384.006 173.883 382.836 177.248 380.489 179.722C378.11 182.298 374.808 183.589 370.591 183.589C367.576 183.589 364.911 182.839 362.602 181.331C360.089 179.658 358.569 177.394 358.028 174.55H365.261C365.661 175.486 366.399 176.211 367.474 176.713C368.447 177.184 369.484 177.419 370.591 177.419C375.114 177.419 377.372 174.856 377.372 169.735V168.577C375.362 170.518 372.849 171.491 369.834 171.491C366.285 171.491 363.301 170.117 360.891 167.369C358.581 164.755 357.424 161.644 357.424 158.025C357.424 154.176 358.677 150.938 361.19 148.33C363.702 145.716 366.883 144.412 370.737 144.412C374.592 144.412 377.76 145.716 380.26 148.33C382.753 150.945 384 154.176 384 158.025H384.006ZM377.378 158.076C377.378 156.097 376.755 154.367 375.521 152.879C374.28 151.39 372.69 150.646 370.75 150.646C368.81 150.646 367.175 151.384 365.954 152.853C364.733 154.329 364.122 156.065 364.122 158.076C364.122 160.086 364.739 161.759 365.979 163.196C367.22 164.64 368.81 165.359 370.75 165.359C372.69 165.359 374.268 164.621 375.572 163.152C376.774 161.714 377.378 160.022 377.378 158.076Z" fill="#A6A7A6"/>
<path d="M401.188 144.412C404.941 144.412 408.052 145.735 410.533 148.381C413.007 151.028 414.248 154.24 414.248 158.025C414.248 161.809 413.001 164.964 410.507 167.598C408.014 170.225 404.903 171.542 401.188 171.542C397.474 171.542 394.331 170.225 391.87 167.598C389.408 164.971 388.174 161.778 388.174 158.025C388.174 154.272 389.408 151.028 391.87 148.381C394.331 145.735 397.435 144.412 401.188 144.412ZM401.188 165.461C403.129 165.461 404.706 164.691 405.908 163.152C407.015 161.746 407.568 160.054 407.568 158.076C407.568 156.097 407.015 154.342 405.908 152.904C404.706 151.295 403.129 150.493 401.188 150.493C399.248 150.493 397.671 151.295 396.469 152.904C395.362 154.342 394.808 156.072 394.808 158.076C394.808 160.079 395.362 161.739 396.469 163.152C397.671 164.691 399.248 165.461 401.188 165.461Z" fill="#A6A7A6"/>
<path d="M432.228 144.559V150.787C431.694 150.685 431.172 150.634 430.669 150.634C429.028 150.634 427.705 151.111 426.7 152.065C425.695 153.02 425.193 154.317 425.193 155.958V170.926H418.564V155.958C418.564 152.441 419.601 149.635 421.681 147.543C423.755 145.45 426.554 144.4 430.071 144.4C430.778 144.4 431.496 144.451 432.234 144.553L432.228 144.559Z" fill="#A6A7A6"/>
<path d="M447.298 164.859V170.889C446.726 170.959 446.179 170.991 445.638 170.991C442.388 170.991 439.894 169.954 438.151 167.874C436.51 165.966 435.689 163.351 435.689 160.037V138.486H442.318V145.07H446.993V150.947H442.318V160.088C442.318 163.472 443.978 165.063 447.292 164.859H447.298Z" fill="#A6A7A6"/>
<path d="M477.094 158.025V170.937H470.815V168.228C468.837 170.403 466.21 171.491 462.928 171.491C459.378 171.491 456.395 170.117 453.984 167.369C451.675 164.755 450.518 161.644 450.518 158.025C450.518 154.176 451.771 150.938 454.283 148.33C456.796 145.716 459.976 144.412 463.831 144.412C467.686 144.412 470.854 145.716 473.354 148.33C475.847 150.945 477.094 154.176 477.094 158.025ZM470.466 158.076C470.466 156.097 469.842 154.367 468.608 152.879C467.368 151.39 465.778 150.646 463.837 150.646C461.897 150.646 460.263 151.384 459.041 152.853C457.82 154.329 457.209 156.065 457.209 158.076C457.209 160.086 457.826 161.759 459.067 163.196C460.307 164.64 461.897 165.359 463.837 165.359C465.778 165.359 467.355 164.621 468.659 163.152C469.861 161.714 470.466 160.022 470.466 158.076Z" fill="#A6A7A6"/>
<path d="M166.295 36.957H152.574V82.1455H166.295V36.957Z" fill="#273A7E"/>
<path d="M146.844 102.806C143.021 106.788 137.938 108.779 131.59 108.779C125.242 108.779 120.134 106.788 116.26 102.806C113.951 100.434 112.348 97.6283 111.413 94.416H97.4824C98.6846 101.388 101.738 107.335 106.655 112.252C113.162 118.766 121.476 122.016 131.59 122.016C141.704 122.016 150.011 118.766 156.525 112.252C161.442 107.335 164.495 101.388 165.698 94.416H151.621C150.698 97.6347 149.121 100.434 146.844 102.806Z" fill="#273A7E"/>
<path d="M110.452 36.957H96.8965V82.1455H110.452V36.957Z" fill="#273A7E"/>
</svg>
